<mxfile host="app.diagrams.net" modified="2024-02-01T17:17:20.114Z" agent="Mozilla/5.0 (Windows NT 10.0; Win64; x64; rv:121.0) Gecko/20100101 Firefox/121.0" version="23.1.0" etag="ekxB4xDIeqngZVByYhwl" type="github">
  <diagram name="Page-1" id="ieDN78RhmptPFViyQEq6">
    <mxGraphModel>
      <root>
        <mxCell id="0" />
        <mxCell id="1" parent="0" />
      </root>
    </mxGraphModel>
  </diagram>
</mxfile>
